<?xml version="1.0" encoding="UTF-8" standalone="no"?>
<!DOCTYPE svg PUBLIC "-//W3C//DTD SVG 1.1//EN"
 "http://www.w3.org/Graphics/SVG/1.1/DTD/svg11.dtd">
<!-- Generated by graphviz version 2.43.0 (0)
 -->
<!-- Title: RecursionTree Pages: 1 -->
<svg width="1238pt" height="332pt"
 viewBox="0.00 0.00 1238.00 332.00" xmlns="http://www.w3.org/2000/svg" xmlns:xlink="http://www.w3.org/1999/xlink">
<g id="graph0" class="graph" transform="scale(1 1) rotate(0) translate(4 328)">
<title>RecursionTree</title>
<polygon fill="white" stroke="transparent" points="-4,4 -4,-328 1234,-328 1234,4 -4,4"/>
<!-- 0 -->
<g id="node1" class="node">
<title>0</title>
<path fill="none" stroke="black" d="M861,-324C861,-324 357,-324 357,-324 351,-324 345,-318 345,-312 345,-312 345,-300 345,-300 345,-294 351,-288 357,-288 357,-288 861,-288 861,-288 867,-288 873,-294 873,-300 873,-300 873,-312 873,-312 873,-318 867,-324 861,-324"/>
<text text-anchor="middle" x="609" y="-302.3" font-family="monospace" font-size="14.00">permuts([1, 2, 3]) &#45;&gt; [[1, 2, 3], [1, 3, 2], [2, 1, 3], [2,...</text>
</g>
<!-- 1 -->
<g id="node2" class="node">
<title>1</title>
<path fill="none" stroke="black" d="M663,-252C663,-252 555,-252 555,-252 549,-252 543,-246 543,-240 543,-240 543,-228 543,-228 543,-222 549,-216 555,-216 555,-216 663,-216 663,-216 669,-216 675,-222 675,-228 675,-228 675,-240 675,-240 675,-246 669,-252 663,-252"/>
<text text-anchor="middle" x="609" y="-230.3" font-family="monospace" font-size="14.00">bt([]) &#45;&gt; None</text>
</g>
<!-- 0&#45;&gt;1 -->
<g id="edge1" class="edge">
<title>0&#45;&gt;1</title>
<path fill="none" stroke="black" d="M609,-287.7C609,-279.98 609,-270.71 609,-262.11"/>
<polygon fill="black" stroke="black" points="612.5,-262.1 609,-252.1 605.5,-262.1 612.5,-262.1"/>
</g>
<!-- 2 -->
<g id="node3" class="node">
<title>2</title>
<path fill="none" stroke="black" d="M361,-180C361,-180 245,-180 245,-180 239,-180 233,-174 233,-168 233,-168 233,-156 233,-156 233,-150 239,-144 245,-144 245,-144 361,-144 361,-144 367,-144 373,-150 373,-156 373,-156 373,-168 373,-168 373,-174 367,-180 361,-180"/>
<text text-anchor="middle" x="303" y="-158.3" font-family="monospace" font-size="14.00">bt([1]) &#45;&gt; None</text>
</g>
<!-- 1&#45;&gt;2 -->
<g id="edge2" class="edge">
<title>1&#45;&gt;2</title>
<path fill="none" stroke="black" d="M542.98,-217.9C496.04,-207.16 432.73,-192.68 382.93,-181.28"/>
<polygon fill="black" stroke="black" points="383.69,-177.87 373.16,-179.05 382.13,-184.69 383.69,-177.87"/>
</g>
<!-- 7 -->
<g id="node8" class="node">
<title>7</title>
<path fill="none" stroke="black" d="M667,-180C667,-180 551,-180 551,-180 545,-180 539,-174 539,-168 539,-168 539,-156 539,-156 539,-150 545,-144 551,-144 551,-144 667,-144 667,-144 673,-144 679,-150 679,-156 679,-156 679,-168 679,-168 679,-174 673,-180 667,-180"/>
<text text-anchor="middle" x="609" y="-158.3" font-family="monospace" font-size="14.00">bt([2]) &#45;&gt; None</text>
</g>
<!-- 1&#45;&gt;7 -->
<g id="edge7" class="edge">
<title>1&#45;&gt;7</title>
<path fill="none" stroke="black" d="M609,-215.7C609,-207.98 609,-198.71 609,-190.11"/>
<polygon fill="black" stroke="black" points="612.5,-190.1 609,-180.1 605.5,-190.1 612.5,-190.1"/>
</g>
<!-- 12 -->
<g id="node13" class="node">
<title>12</title>
<path fill="none" stroke="black" d="M985,-180C985,-180 869,-180 869,-180 863,-180 857,-174 857,-168 857,-168 857,-156 857,-156 857,-150 863,-144 869,-144 869,-144 985,-144 985,-144 991,-144 997,-150 997,-156 997,-156 997,-168 997,-168 997,-174 991,-180 985,-180"/>
<text text-anchor="middle" x="927" y="-158.3" font-family="monospace" font-size="14.00">bt([3]) &#45;&gt; None</text>
</g>
<!-- 1&#45;&gt;12 -->
<g id="edge12" class="edge">
<title>1&#45;&gt;12</title>
<path fill="none" stroke="black" d="M675.28,-218.41C725.21,-207.42 793.9,-192.3 846.91,-180.63"/>
<polygon fill="black" stroke="black" points="847.94,-183.99 856.95,-178.42 846.43,-177.15 847.94,-183.99"/>
</g>
<!-- 3 -->
<g id="node4" class="node">
<title>3</title>
<path fill="none" stroke="black" d="M177.5,-108C177.5,-108 36.5,-108 36.5,-108 30.5,-108 24.5,-102 24.5,-96 24.5,-96 24.5,-84 24.5,-84 24.5,-78 30.5,-72 36.5,-72 36.5,-72 177.5,-72 177.5,-72 183.5,-72 189.5,-78 189.5,-84 189.5,-84 189.5,-96 189.5,-96 189.5,-102 183.5,-108 177.5,-108"/>
<text text-anchor="middle" x="107" y="-86.3" font-family="monospace" font-size="14.00">bt([1, 2]) &#45;&gt; None</text>
</g>
<!-- 2&#45;&gt;3 -->
<g id="edge3" class="edge">
<title>2&#45;&gt;3</title>
<path fill="none" stroke="black" d="M255.3,-143.97C227.92,-134.19 193.34,-121.84 164.47,-111.52"/>
<polygon fill="black" stroke="black" points="165.5,-108.18 154.91,-108.11 163.15,-114.77 165.5,-108.18"/>
</g>
<!-- 5 -->
<g id="node6" class="node">
<title>5</title>
<path fill="none" stroke="black" d="M373.5,-108C373.5,-108 232.5,-108 232.5,-108 226.5,-108 220.5,-102 220.5,-96 220.5,-96 220.5,-84 220.5,-84 220.5,-78 226.5,-72 232.5,-72 232.5,-72 373.5,-72 373.5,-72 379.5,-72 385.5,-78 385.5,-84 385.5,-84 385.5,-96 385.5,-96 385.5,-102 379.5,-108 373.5,-108"/>
<text text-anchor="middle" x="303" y="-86.3" font-family="monospace" font-size="14.00">bt([1, 3]) &#45;&gt; None</text>
</g>
<!-- 2&#45;&gt;5 -->
<g id="edge5" class="edge">
<title>2&#45;&gt;5</title>
<path fill="none" stroke="black" d="M303,-143.7C303,-135.98 303,-126.71 303,-118.11"/>
<polygon fill="black" stroke="black" points="306.5,-118.1 303,-108.1 299.5,-118.1 306.5,-118.1"/>
</g>
<!-- 4 -->
<g id="node5" class="node">
<title>4</title>
<path fill="none" stroke="black" d="M178,-36C178,-36 12,-36 12,-36 6,-36 0,-30 0,-24 0,-24 0,-12 0,-12 0,-6 6,0 12,0 12,0 178,0 178,0 184,0 190,-6 190,-12 190,-12 190,-24 190,-24 190,-30 184,-36 178,-36"/>
<text text-anchor="middle" x="95" y="-14.3" font-family="monospace" font-size="14.00">bt([1, 2, 3]) &#45;&gt; None</text>
</g>
<!-- 3&#45;&gt;4 -->
<g id="edge4" class="edge">
<title>3&#45;&gt;4</title>
<path fill="none" stroke="black" d="M104.03,-71.7C102.71,-63.98 101.12,-54.71 99.65,-46.11"/>
<polygon fill="black" stroke="black" points="103.07,-45.37 97.93,-36.1 96.17,-46.55 103.07,-45.37"/>
</g>
<!-- 6 -->
<g id="node7" class="node">
<title>6</title>
<path fill="none" stroke="black" d="M386,-36C386,-36 220,-36 220,-36 214,-36 208,-30 208,-24 208,-24 208,-12 208,-12 208,-6 214,0 220,0 220,0 386,0 386,0 392,0 398,-6 398,-12 398,-12 398,-24 398,-24 398,-30 392,-36 386,-36"/>
<text text-anchor="middle" x="303" y="-14.3" font-family="monospace" font-size="14.00">bt([1, 3, 2]) &#45;&gt; None</text>
</g>
<!-- 5&#45;&gt;6 -->
<g id="edge6" class="edge">
<title>5&#45;&gt;6</title>
<path fill="none" stroke="black" d="M303,-71.7C303,-63.98 303,-54.71 303,-46.11"/>
<polygon fill="black" stroke="black" points="306.5,-46.1 303,-36.1 299.5,-46.1 306.5,-46.1"/>
</g>
<!-- 8 -->
<g id="node9" class="node">
<title>8</title>
<path fill="none" stroke="black" d="M587.5,-108C587.5,-108 446.5,-108 446.5,-108 440.5,-108 434.5,-102 434.5,-96 434.5,-96 434.5,-84 434.5,-84 434.5,-78 440.5,-72 446.5,-72 446.5,-72 587.5,-72 587.5,-72 593.5,-72 599.5,-78 599.5,-84 599.5,-84 599.5,-96 599.5,-96 599.5,-102 593.5,-108 587.5,-108"/>
<text text-anchor="middle" x="517" y="-86.3" font-family="monospace" font-size="14.00">bt([2, 1]) &#45;&gt; None</text>
</g>
<!-- 7&#45;&gt;8 -->
<g id="edge8" class="edge">
<title>7&#45;&gt;8</title>
<path fill="none" stroke="black" d="M586.26,-143.7C574.56,-134.8 560.14,-123.82 547.49,-114.2"/>
<polygon fill="black" stroke="black" points="549.56,-111.37 539.48,-108.1 545.32,-116.94 549.56,-111.37"/>
</g>
<!-- 10 -->
<g id="node11" class="node">
<title>10</title>
<path fill="none" stroke="black" d="M777.5,-108C777.5,-108 636.5,-108 636.5,-108 630.5,-108 624.5,-102 624.5,-96 624.5,-96 624.5,-84 624.5,-84 624.5,-78 630.5,-72 636.5,-72 636.5,-72 777.5,-72 777.5,-72 783.5,-72 789.5,-78 789.5,-84 789.5,-84 789.5,-96 789.5,-96 789.5,-102 783.5,-108 777.5,-108"/>
<text text-anchor="middle" x="707" y="-86.3" font-family="monospace" font-size="14.00">bt([2, 3]) &#45;&gt; None</text>
</g>
<!-- 7&#45;&gt;10 -->
<g id="edge10" class="edge">
<title>7&#45;&gt;10</title>
<path fill="none" stroke="black" d="M632.97,-143.88C645.55,-134.89 661.13,-123.76 674.75,-114.03"/>
<polygon fill="black" stroke="black" points="676.83,-116.85 682.93,-108.19 672.76,-111.15 676.83,-116.85"/>
</g>
<!-- 9 -->
<g id="node10" class="node">
<title>9</title>
<path fill="none" stroke="black" d="M594,-36C594,-36 428,-36 428,-36 422,-36 416,-30 416,-24 416,-24 416,-12 416,-12 416,-6 422,0 428,0 428,0 594,0 594,0 600,0 606,-6 606,-12 606,-12 606,-24 606,-24 606,-30 600,-36 594,-36"/>
<text text-anchor="middle" x="511" y="-14.3" font-family="monospace" font-size="14.00">bt([2, 1, 3]) &#45;&gt; None</text>
</g>
<!-- 8&#45;&gt;9 -->
<g id="edge9" class="edge">
<title>8&#45;&gt;9</title>
<path fill="none" stroke="black" d="M515.52,-71.7C514.86,-63.98 514.06,-54.71 513.32,-46.11"/>
<polygon fill="black" stroke="black" points="516.81,-45.77 512.47,-36.1 509.83,-46.37 516.81,-45.77"/>
</g>
<!-- 11 -->
<g id="node12" class="node">
<title>11</title>
<path fill="none" stroke="black" d="M802,-36C802,-36 636,-36 636,-36 630,-36 624,-30 624,-24 624,-24 624,-12 624,-12 624,-6 630,0 636,0 636,0 802,0 802,0 808,0 814,-6 814,-12 814,-12 814,-24 814,-24 814,-30 808,-36 802,-36"/>
<text text-anchor="middle" x="719" y="-14.3" font-family="monospace" font-size="14.00">bt([2, 3, 1]) &#45;&gt; None</text>
</g>
<!-- 10&#45;&gt;11 -->
<g id="edge11" class="edge">
<title>10&#45;&gt;11</title>
<path fill="none" stroke="black" d="M709.97,-71.7C711.29,-63.98 712.88,-54.71 714.35,-46.11"/>
<polygon fill="black" stroke="black" points="717.83,-46.55 716.07,-36.1 710.93,-45.37 717.83,-46.55"/>
</g>
<!-- 13 -->
<g id="node14" class="node">
<title>13</title>
<path fill="none" stroke="black" d="M997.5,-108C997.5,-108 856.5,-108 856.5,-108 850.5,-108 844.5,-102 844.5,-96 844.5,-96 844.5,-84 844.5,-84 844.5,-78 850.5,-72 856.5,-72 856.5,-72 997.5,-72 997.5,-72 1003.5,-72 1009.5,-78 1009.5,-84 1009.5,-84 1009.5,-96 1009.5,-96 1009.5,-102 1003.5,-108 997.5,-108"/>
<text text-anchor="middle" x="927" y="-86.3" font-family="monospace" font-size="14.00">bt([3, 1]) &#45;&gt; None</text>
</g>
<!-- 12&#45;&gt;13 -->
<g id="edge13" class="edge">
<title>12&#45;&gt;13</title>
<path fill="none" stroke="black" d="M927,-143.7C927,-135.98 927,-126.71 927,-118.11"/>
<polygon fill="black" stroke="black" points="930.5,-118.1 927,-108.1 923.5,-118.1 930.5,-118.1"/>
</g>
<!-- 15 -->
<g id="node16" class="node">
<title>15</title>
<path fill="none" stroke="black" d="M1192.5,-108C1192.5,-108 1051.5,-108 1051.5,-108 1045.5,-108 1039.5,-102 1039.5,-96 1039.5,-96 1039.5,-84 1039.5,-84 1039.5,-78 1045.5,-72 1051.5,-72 1051.5,-72 1192.5,-72 1192.5,-72 1198.5,-72 1204.5,-78 1204.5,-84 1204.5,-84 1204.5,-96 1204.5,-96 1204.5,-102 1198.5,-108 1192.5,-108"/>
<text text-anchor="middle" x="1122" y="-86.3" font-family="monospace" font-size="14.00">bt([3, 2]) &#45;&gt; None</text>
</g>
<!-- 12&#45;&gt;15 -->
<g id="edge15" class="edge">
<title>12&#45;&gt;15</title>
<path fill="none" stroke="black" d="M974.7,-143.88C1001.95,-134.09 1036.3,-121.77 1064.97,-111.47"/>
<polygon fill="black" stroke="black" points="1066.22,-114.74 1074.45,-108.07 1063.86,-108.15 1066.22,-114.74"/>
</g>
<!-- 14 -->
<g id="node15" class="node">
<title>14</title>
<path fill="none" stroke="black" d="M1010,-36C1010,-36 844,-36 844,-36 838,-36 832,-30 832,-24 832,-24 832,-12 832,-12 832,-6 838,0 844,0 844,0 1010,0 1010,0 1016,0 1022,-6 1022,-12 1022,-12 1022,-24 1022,-24 1022,-30 1016,-36 1010,-36"/>
<text text-anchor="middle" x="927" y="-14.3" font-family="monospace" font-size="14.00">bt([3, 1, 2]) &#45;&gt; None</text>
</g>
<!-- 13&#45;&gt;14 -->
<g id="edge14" class="edge">
<title>13&#45;&gt;14</title>
<path fill="none" stroke="black" d="M927,-71.7C927,-63.98 927,-54.71 927,-46.11"/>
<polygon fill="black" stroke="black" points="930.5,-46.1 927,-36.1 923.5,-46.1 930.5,-46.1"/>
</g>
<!-- 16 -->
<g id="node17" class="node">
<title>16</title>
<path fill="none" stroke="black" d="M1218,-36C1218,-36 1052,-36 1052,-36 1046,-36 1040,-30 1040,-24 1040,-24 1040,-12 1040,-12 1040,-6 1046,0 1052,0 1052,0 1218,0 1218,0 1224,0 1230,-6 1230,-12 1230,-12 1230,-24 1230,-24 1230,-30 1224,-36 1218,-36"/>
<text text-anchor="middle" x="1135" y="-14.3" font-family="monospace" font-size="14.00">bt([3, 2, 1]) &#45;&gt; None</text>
</g>
<!-- 15&#45;&gt;16 -->
<g id="edge16" class="edge">
<title>15&#45;&gt;16</title>
<path fill="none" stroke="black" d="M1125.21,-71.7C1126.65,-63.98 1128.37,-54.71 1129.96,-46.11"/>
<polygon fill="black" stroke="black" points="1133.44,-46.58 1131.82,-36.1 1126.56,-45.3 1133.44,-46.58"/>
</g>
</g>
</svg>
