<?xml version="1.0" encoding="UTF-8" standalone="no"?>
<!DOCTYPE svg PUBLIC "-//W3C//DTD SVG 1.1//EN"
 "http://www.w3.org/Graphics/SVG/1.1/DTD/svg11.dtd">
<!-- Generated by graphviz version 2.43.0 (0)
 -->
<!-- Title: RecursionTree Pages: 1 -->
<svg width="913pt" height="260pt"
 viewBox="0.00 0.00 913.00 260.00" xmlns="http://www.w3.org/2000/svg" xmlns:xlink="http://www.w3.org/1999/xlink">
<g id="graph0" class="graph" transform="scale(1 1) rotate(0) translate(4 256)">
<title>RecursionTree</title>
<polygon fill="white" stroke="transparent" points="-4,4 -4,-256 909,-256 909,4 -4,4"/>
<!-- 0 -->
<g id="node1" class="node">
<title>0</title>
<path fill="none" stroke="black" d="M865.5,-252C865.5,-252 394.5,-252 394.5,-252 388.5,-252 382.5,-246 382.5,-240 382.5,-240 382.5,-228 382.5,-228 382.5,-222 388.5,-216 394.5,-216 394.5,-216 865.5,-216 865.5,-216 871.5,-216 877.5,-222 877.5,-228 877.5,-228 877.5,-240 877.5,-240 877.5,-246 871.5,-252 865.5,-252"/>
<text text-anchor="middle" x="630" y="-230.3" font-family="monospace" font-size="14.00">combos_4(4, 2) &#45;&gt; [[1, 2], [1, 3], [1, 4], [2, 3], [2, ...</text>
</g>
<!-- 1 -->
<g id="node2" class="node">
<title>1</title>
<path fill="none" stroke="black" d="M680,-180C680,-180 580,-180 580,-180 574,-180 568,-174 568,-168 568,-168 568,-156 568,-156 568,-150 574,-144 580,-144 580,-144 680,-144 680,-144 686,-144 692,-150 692,-156 692,-156 692,-168 692,-168 692,-174 686,-180 680,-180"/>
<text text-anchor="middle" x="630" y="-158.3" font-family="monospace" font-size="14.00">bt(1) &#45;&gt; None</text>
</g>
<!-- 0&#45;&gt;1 -->
<g id="edge1" class="edge">
<title>0&#45;&gt;1</title>
<path fill="none" stroke="black" d="M630,-215.7C630,-207.98 630,-198.71 630,-190.11"/>
<polygon fill="black" stroke="black" points="633.5,-190.1 630,-180.1 626.5,-190.1 633.5,-190.1"/>
</g>
<!-- 2 -->
<g id="node3" class="node">
<title>2</title>
<path fill="none" stroke="black" d="M325,-108C325,-108 225,-108 225,-108 219,-108 213,-102 213,-96 213,-96 213,-84 213,-84 213,-78 219,-72 225,-72 225,-72 325,-72 325,-72 331,-72 337,-78 337,-84 337,-84 337,-96 337,-96 337,-102 331,-108 325,-108"/>
<text text-anchor="middle" x="275" y="-86.3" font-family="monospace" font-size="14.00">bt(2) &#45;&gt; None</text>
</g>
<!-- 1&#45;&gt;2 -->
<g id="edge2" class="edge">
<title>1&#45;&gt;2</title>
<path fill="none" stroke="black" d="M567.76,-148.73C506.22,-136.59 412.13,-118.04 347.31,-105.26"/>
<polygon fill="black" stroke="black" points="347.66,-101.76 337.17,-103.26 346.3,-108.63 347.66,-101.76"/>
</g>
<!-- 6 -->
<g id="node7" class="node">
<title>6</title>
<path fill="none" stroke="black" d="M609,-108C609,-108 509,-108 509,-108 503,-108 497,-102 497,-96 497,-96 497,-84 497,-84 497,-78 503,-72 509,-72 509,-72 609,-72 609,-72 615,-72 621,-78 621,-84 621,-84 621,-96 621,-96 621,-102 615,-108 609,-108"/>
<text text-anchor="middle" x="559" y="-86.3" font-family="monospace" font-size="14.00">bt(3) &#45;&gt; None</text>
</g>
<!-- 1&#45;&gt;6 -->
<g id="edge6" class="edge">
<title>1&#45;&gt;6</title>
<path fill="none" stroke="black" d="M612.45,-143.7C603.77,-135.14 593.14,-124.66 583.65,-115.3"/>
<polygon fill="black" stroke="black" points="585.93,-112.63 576.35,-108.1 581.01,-117.62 585.93,-112.63"/>
</g>
<!-- 9 -->
<g id="node10" class="node">
<title>9</title>
<path fill="none" stroke="black" d="M751,-108C751,-108 651,-108 651,-108 645,-108 639,-102 639,-96 639,-96 639,-84 639,-84 639,-78 645,-72 651,-72 651,-72 751,-72 751,-72 757,-72 763,-78 763,-84 763,-84 763,-96 763,-96 763,-102 757,-108 751,-108"/>
<text text-anchor="middle" x="701" y="-86.3" font-family="monospace" font-size="14.00">bt(4) &#45;&gt; None</text>
</g>
<!-- 1&#45;&gt;9 -->
<g id="edge9" class="edge">
<title>1&#45;&gt;9</title>
<path fill="none" stroke="black" d="M647.55,-143.7C656.23,-135.14 666.86,-124.66 676.35,-115.3"/>
<polygon fill="black" stroke="black" points="678.99,-117.62 683.65,-108.1 674.07,-112.63 678.99,-117.62"/>
</g>
<!-- 11 -->
<g id="node12" class="node">
<title>11</title>
<path fill="none" stroke="black" d="M893,-108C893,-108 793,-108 793,-108 787,-108 781,-102 781,-96 781,-96 781,-84 781,-84 781,-78 787,-72 793,-72 793,-72 893,-72 893,-72 899,-72 905,-78 905,-84 905,-84 905,-96 905,-96 905,-102 899,-108 893,-108"/>
<text text-anchor="middle" x="843" y="-86.3" font-family="monospace" font-size="14.00">bt(5) &#45;&gt; None</text>
</g>
<!-- 1&#45;&gt;11 -->
<g id="edge11" class="edge">
<title>1&#45;&gt;11</title>
<path fill="none" stroke="black" d="M681.83,-143.97C711.85,-134.1 749.82,-121.62 781.37,-111.25"/>
<polygon fill="black" stroke="black" points="782.53,-114.56 790.93,-108.11 780.34,-107.91 782.53,-114.56"/>
</g>
<!-- 3 -->
<g id="node4" class="node">
<title>3</title>
<path fill="none" stroke="black" d="M112,-36C112,-36 12,-36 12,-36 6,-36 0,-30 0,-24 0,-24 0,-12 0,-12 0,-6 6,0 12,0 12,0 112,0 112,0 118,0 124,-6 124,-12 124,-12 124,-24 124,-24 124,-30 118,-36 112,-36"/>
<text text-anchor="middle" x="62" y="-14.3" font-family="monospace" font-size="14.00">bt(3) &#45;&gt; None</text>
</g>
<!-- 2&#45;&gt;3 -->
<g id="edge3" class="edge">
<title>2&#45;&gt;3</title>
<path fill="none" stroke="black" d="M223.17,-71.97C193.15,-62.1 155.18,-49.62 123.63,-39.25"/>
<polygon fill="black" stroke="black" points="124.66,-35.91 114.07,-36.11 122.47,-42.56 124.66,-35.91"/>
</g>
<!-- 4 -->
<g id="node5" class="node">
<title>4</title>
<path fill="none" stroke="black" d="M254,-36C254,-36 154,-36 154,-36 148,-36 142,-30 142,-24 142,-24 142,-12 142,-12 142,-6 148,0 154,0 154,0 254,0 254,0 260,0 266,-6 266,-12 266,-12 266,-24 266,-24 266,-30 260,-36 254,-36"/>
<text text-anchor="middle" x="204" y="-14.3" font-family="monospace" font-size="14.00">bt(4) &#45;&gt; None</text>
</g>
<!-- 2&#45;&gt;4 -->
<g id="edge4" class="edge">
<title>2&#45;&gt;4</title>
<path fill="none" stroke="black" d="M257.45,-71.7C248.77,-63.14 238.14,-52.66 228.65,-43.3"/>
<polygon fill="black" stroke="black" points="230.93,-40.63 221.35,-36.1 226.01,-45.62 230.93,-40.63"/>
</g>
<!-- 5 -->
<g id="node6" class="node">
<title>5</title>
<path fill="none" stroke="black" d="M396,-36C396,-36 296,-36 296,-36 290,-36 284,-30 284,-24 284,-24 284,-12 284,-12 284,-6 290,0 296,0 296,0 396,0 396,0 402,0 408,-6 408,-12 408,-12 408,-24 408,-24 408,-30 402,-36 396,-36"/>
<text text-anchor="middle" x="346" y="-14.3" font-family="monospace" font-size="14.00">bt(5) &#45;&gt; None</text>
</g>
<!-- 2&#45;&gt;5 -->
<g id="edge5" class="edge">
<title>2&#45;&gt;5</title>
<path fill="none" stroke="black" d="M292.55,-71.7C301.23,-63.14 311.86,-52.66 321.35,-43.3"/>
<polygon fill="black" stroke="black" points="323.99,-45.62 328.65,-36.1 319.07,-40.63 323.99,-45.62"/>
</g>
<!-- 7 -->
<g id="node8" class="node">
<title>7</title>
<path fill="none" stroke="black" d="M538,-36C538,-36 438,-36 438,-36 432,-36 426,-30 426,-24 426,-24 426,-12 426,-12 426,-6 432,0 438,0 438,0 538,0 538,0 544,0 550,-6 550,-12 550,-12 550,-24 550,-24 550,-30 544,-36 538,-36"/>
<text text-anchor="middle" x="488" y="-14.3" font-family="monospace" font-size="14.00">bt(4) &#45;&gt; None</text>
</g>
<!-- 6&#45;&gt;7 -->
<g id="edge7" class="edge">
<title>6&#45;&gt;7</title>
<path fill="none" stroke="black" d="M541.45,-71.7C532.77,-63.14 522.14,-52.66 512.65,-43.3"/>
<polygon fill="black" stroke="black" points="514.93,-40.63 505.35,-36.1 510.01,-45.62 514.93,-40.63"/>
</g>
<!-- 8 -->
<g id="node9" class="node">
<title>8</title>
<path fill="none" stroke="black" d="M680,-36C680,-36 580,-36 580,-36 574,-36 568,-30 568,-24 568,-24 568,-12 568,-12 568,-6 574,0 580,0 580,0 680,0 680,0 686,0 692,-6 692,-12 692,-12 692,-24 692,-24 692,-30 686,-36 680,-36"/>
<text text-anchor="middle" x="630" y="-14.3" font-family="monospace" font-size="14.00">bt(5) &#45;&gt; None</text>
</g>
<!-- 6&#45;&gt;8 -->
<g id="edge8" class="edge">
<title>6&#45;&gt;8</title>
<path fill="none" stroke="black" d="M576.55,-71.7C585.23,-63.14 595.86,-52.66 605.35,-43.3"/>
<polygon fill="black" stroke="black" points="607.99,-45.62 612.65,-36.1 603.07,-40.63 607.99,-45.62"/>
</g>
<!-- 10 -->
<g id="node11" class="node">
<title>10</title>
<path fill="none" stroke="black" d="M822,-36C822,-36 722,-36 722,-36 716,-36 710,-30 710,-24 710,-24 710,-12 710,-12 710,-6 716,0 722,0 722,0 822,0 822,0 828,0 834,-6 834,-12 834,-12 834,-24 834,-24 834,-30 828,-36 822,-36"/>
<text text-anchor="middle" x="772" y="-14.3" font-family="monospace" font-size="14.00">bt(5) &#45;&gt; None</text>
</g>
<!-- 9&#45;&gt;10 -->
<g id="edge10" class="edge">
<title>9&#45;&gt;10</title>
<path fill="none" stroke="black" d="M718.55,-71.7C727.23,-63.14 737.86,-52.66 747.35,-43.3"/>
<polygon fill="black" stroke="black" points="749.99,-45.62 754.65,-36.1 745.07,-40.63 749.99,-45.62"/>
</g>
</g>
</svg>
